<?xml version="1.0" encoding="UTF-8" standalone="no"?>
<!DOCTYPE svg PUBLIC "-//W3C//DTD SVG 1.1//EN"
 "http://www.w3.org/Graphics/SVG/1.1/DTD/svg11.dtd">
<!-- Generated by graphviz version 2.38.0 (20140413.2041)
 -->
<!-- Title: snakemake_dag Pages: 1 -->
<svg width="386pt" height="476pt"
 viewBox="0.00 0.00 385.50 476.00" xmlns="http://www.w3.org/2000/svg" xmlns:xlink="http://www.w3.org/1999/xlink">
<g id="graph0" class="graph" transform="scale(1 1) rotate(0) translate(4 472)">
<title>snakemake_dag</title>
<polygon fill="white" stroke="none" points="-4,4 -4,-472 381.5,-472 381.5,4 -4,4"/>
<!-- 0 -->
<g id="node1" class="node"><title>0</title>
<path fill="none" stroke="#d85656" stroke-width="2" d="M273.5,-36C273.5,-36 153.5,-36 153.5,-36 147.5,-36 141.5,-30 141.5,-24 141.5,-24 141.5,-12 141.5,-12 141.5,-6 147.5,-0 153.5,-0 153.5,-0 273.5,-0 273.5,-0 279.5,-0 285.5,-6 285.5,-12 285.5,-12 285.5,-24 285.5,-24 285.5,-30 279.5,-36 273.5,-36"/>
<text text-anchor="middle" x="213.5" y="-15.5" font-family="sans" font-size="10.00">AnnotF_annotation</text>
</g>
<!-- 1 -->
<g id="node2" class="node"><title>1</title>
<path fill="none" stroke="#d88d56" stroke-width="2" d="M251,-108C251,-108 176,-108 176,-108 170,-108 164,-102 164,-96 164,-96 164,-84 164,-84 164,-78 170,-72 176,-72 176,-72 251,-72 251,-72 257,-72 263,-78 263,-84 263,-84 263,-96 263,-96 263,-102 257,-108 251,-108"/>
<text text-anchor="middle" x="213.5" y="-87.5" font-family="sans" font-size="10.00">Consolidate</text>
</g>
<!-- 1&#45;&gt;0 -->
<g id="edge1" class="edge"><title>1&#45;&gt;0</title>
<path fill="none" stroke="grey" stroke-width="2" d="M213.5,-71.6966C213.5,-63.9827 213.5,-54.7125 213.5,-46.1124"/>
<polygon fill="grey" stroke="grey" stroke-width="2" points="217,-46.1043 213.5,-36.1043 210,-46.1044 217,-46.1043"/>
</g>
<!-- 2 -->
<g id="node3" class="node"><title>2</title>
<path fill="none" stroke="#afd856" stroke-width="2" d="M194,-252C194,-252 51,-252 51,-252 45,-252 39,-246 39,-240 39,-240 39,-228 39,-228 39,-222 45,-216 51,-216 51,-216 194,-216 194,-216 200,-216 206,-222 206,-228 206,-228 206,-240 206,-240 206,-246 200,-252 194,-252"/>
<text text-anchor="middle" x="122.5" y="-231.5" font-family="sans" font-size="10.00">Collate_InterProScan</text>
</g>
<!-- 2&#45;&gt;1 -->
<g id="edge2" class="edge"><title>2&#45;&gt;1</title>
<path fill="none" stroke="grey" stroke-width="2" d="M133.477,-215.871C149.259,-191.244 178.486,-145.638 196.912,-116.885"/>
<polygon fill="grey" stroke="grey" stroke-width="2" points="200.036,-118.497 202.484,-108.189 194.142,-114.72 200.036,-118.497"/>
</g>
<!-- 3 -->
<g id="node4" class="node"><title>3</title>
<path fill="none" stroke="#56d873" stroke-width="2" d="M285,-180C285,-180 232,-180 232,-180 226,-180 220,-174 220,-168 220,-168 220,-156 220,-156 220,-150 226,-144 232,-144 232,-144 285,-144 285,-144 291,-144 297,-150 297,-156 297,-156 297,-168 297,-168 297,-174 291,-180 285,-180"/>
<text text-anchor="middle" x="258.5" y="-159.5" font-family="sans" font-size="10.00">Blast2GO</text>
</g>
<!-- 3&#45;&gt;1 -->
<g id="edge3" class="edge"><title>3&#45;&gt;1</title>
<path fill="none" stroke="grey" stroke-width="2" d="M247.376,-143.697C242.145,-135.559 235.8,-125.689 230.022,-116.701"/>
<polygon fill="grey" stroke="grey" stroke-width="2" points="232.847,-114.623 224.496,-108.104 226.959,-118.409 232.847,-114.623"/>
</g>
<!-- 4 -->
<g id="node5" class="node"><title>4</title>
<path fill="none" stroke="#56c9d8" stroke-width="2" d="M95,-324C95,-324 12,-324 12,-324 6,-324 0,-318 0,-312 0,-312 0,-300 0,-300 0,-294 6,-288 12,-288 12,-288 95,-288 95,-288 101,-288 107,-294 107,-300 107,-300 107,-312 107,-312 107,-318 101,-324 95,-324"/>
<text text-anchor="middle" x="53.5" y="-303.5" font-family="sans" font-size="10.00">InterProScan</text>
</g>
<!-- 4&#45;&gt;2 -->
<g id="edge4" class="edge"><title>4&#45;&gt;2</title>
<path fill="none" stroke="grey" stroke-width="2" d="M70.5562,-287.697C78.9955,-279.135 89.3246,-268.656 98.5427,-259.304"/>
<polygon fill="grey" stroke="grey" stroke-width="2" points="101.113,-261.683 105.64,-252.104 96.1273,-256.769 101.113,-261.683"/>
</g>
<!-- 5 -->
<g id="node6" class="node"><title>5</title>
<path fill="none" stroke="#56c9d8" stroke-width="2" d="M293,-324C293,-324 210,-324 210,-324 204,-324 198,-318 198,-312 198,-312 198,-300 198,-300 198,-294 204,-288 210,-288 210,-288 293,-288 293,-288 299,-288 305,-294 305,-300 305,-300 305,-312 305,-312 305,-318 299,-324 293,-324"/>
<text text-anchor="middle" x="251.5" y="-303.5" font-family="sans" font-size="10.00">InterProScan</text>
</g>
<!-- 5&#45;&gt;2 -->
<g id="edge5" class="edge"><title>5&#45;&gt;2</title>
<path fill="none" stroke="grey" stroke-width="2" d="M219.943,-287.876C202.842,-278.596 181.518,-267.025 163.181,-257.075"/>
<polygon fill="grey" stroke="grey" stroke-width="2" points="164.637,-253.883 154.178,-252.19 161.298,-260.035 164.637,-253.883"/>
</g>
<!-- 6 -->
<g id="node7" class="node"><title>6</title>
<path fill="none" stroke="#5692d8" stroke-width="2" d="M326.5,-252C326.5,-252 236.5,-252 236.5,-252 230.5,-252 224.5,-246 224.5,-240 224.5,-240 224.5,-228 224.5,-228 224.5,-222 230.5,-216 236.5,-216 236.5,-216 326.5,-216 326.5,-216 332.5,-216 338.5,-222 338.5,-228 338.5,-228 338.5,-240 338.5,-240 338.5,-246 332.5,-252 326.5,-252"/>
<text text-anchor="middle" x="281.5" y="-231.5" font-family="sans" font-size="10.00">Collate_Blast</text>
</g>
<!-- 6&#45;&gt;3 -->
<g id="edge6" class="edge"><title>6&#45;&gt;3</title>
<path fill="none" stroke="grey" stroke-width="2" d="M275.815,-215.697C273.252,-207.898 270.167,-198.509 267.315,-189.829"/>
<polygon fill="grey" stroke="grey" stroke-width="2" points="270.567,-188.512 264.12,-180.104 263.916,-190.697 270.567,-188.512"/>
</g>
<!-- 7 -->
<g id="node8" class="node"><title>7</title>
<path fill="none" stroke="#d8cb56" stroke-width="2" d="M175,-396C175,-396 122,-396 122,-396 116,-396 110,-390 110,-384 110,-384 110,-372 110,-372 110,-366 116,-360 122,-360 122,-360 175,-360 175,-360 181,-360 187,-366 187,-372 187,-372 187,-384 187,-384 187,-390 181,-396 175,-396"/>
<text text-anchor="middle" x="148.5" y="-381" font-family="sans" font-size="10.00">chunk</text>
<text text-anchor="middle" x="148.5" y="-370" font-family="sans" font-size="10.00">chunk: 1</text>
</g>
<!-- 7&#45;&gt;4 -->
<g id="edge7" class="edge"><title>7&#45;&gt;4</title>
<path fill="none" stroke="grey" stroke-width="2" d="M125.017,-359.697C112.937,-350.796 98.0458,-339.823 84.9842,-330.199"/>
<polygon fill="grey" stroke="grey" stroke-width="2" points="86.8398,-327.219 76.713,-324.104 82.6874,-332.854 86.8398,-327.219"/>
</g>
<!-- 9 -->
<g id="node10" class="node"><title>9</title>
<path fill="none" stroke="#70d856" stroke-width="2" d="M167.5,-324C167.5,-324 137.5,-324 137.5,-324 131.5,-324 125.5,-318 125.5,-312 125.5,-312 125.5,-300 125.5,-300 125.5,-294 131.5,-288 137.5,-288 137.5,-288 167.5,-288 167.5,-288 173.5,-288 179.5,-294 179.5,-300 179.5,-300 179.5,-312 179.5,-312 179.5,-318 173.5,-324 167.5,-324"/>
<text text-anchor="middle" x="152.5" y="-303.5" font-family="sans" font-size="10.00">Blast</text>
</g>
<!-- 7&#45;&gt;9 -->
<g id="edge13" class="edge"><title>7&#45;&gt;9</title>
<path fill="none" stroke="grey" stroke-width="2" d="M149.489,-359.697C149.93,-351.983 150.459,-342.712 150.951,-334.112"/>
<polygon fill="grey" stroke="grey" stroke-width="2" points="154.446,-334.288 151.523,-324.104 147.458,-333.888 154.446,-334.288"/>
</g>
<!-- 8 -->
<g id="node9" class="node"><title>8</title>
<path fill="none" stroke="#d8cb56" stroke-width="2" d="M292,-396C292,-396 217,-396 217,-396 211,-396 205,-390 205,-384 205,-384 205,-372 205,-372 205,-366 211,-360 217,-360 217,-360 292,-360 292,-360 298,-360 304,-366 304,-372 304,-372 304,-384 304,-384 304,-390 298,-396 292,-396"/>
<text text-anchor="middle" x="254.5" y="-381" font-family="sans" font-size="10.00">chunk</text>
<text text-anchor="middle" x="254.5" y="-370" font-family="sans" font-size="10.00">chunk: 2..n</text>
</g>
<!-- 8&#45;&gt;5 -->
<g id="edge8" class="edge"><title>8&#45;&gt;5</title>
<path fill="none" stroke="grey" stroke-width="2" d="M253.758,-359.697C253.428,-351.983 253.031,-342.712 252.662,-334.112"/>
<polygon fill="grey" stroke="grey" stroke-width="2" points="256.158,-333.945 252.233,-324.104 249.165,-334.245 256.158,-333.945"/>
</g>
<!-- 10 -->
<g id="node11" class="node"><title>10</title>
<path fill="none" stroke="#70d856" stroke-width="2" d="M365.5,-324C365.5,-324 335.5,-324 335.5,-324 329.5,-324 323.5,-318 323.5,-312 323.5,-312 323.5,-300 323.5,-300 323.5,-294 329.5,-288 335.5,-288 335.5,-288 365.5,-288 365.5,-288 371.5,-288 377.5,-294 377.5,-300 377.5,-300 377.5,-312 377.5,-312 377.5,-318 371.5,-324 365.5,-324"/>
<text text-anchor="middle" x="350.5" y="-303.5" font-family="sans" font-size="10.00">Blast</text>
</g>
<!-- 8&#45;&gt;10 -->
<g id="edge14" class="edge"><title>8&#45;&gt;10</title>
<path fill="none" stroke="grey" stroke-width="2" d="M278.23,-359.697C290.437,-350.796 305.485,-339.823 318.684,-330.199"/>
<polygon fill="grey" stroke="grey" stroke-width="2" points="321.025,-332.824 327.043,-324.104 316.9,-327.168 321.025,-332.824"/>
</g>
<!-- 9&#45;&gt;6 -->
<g id="edge9" class="edge"><title>9&#45;&gt;6</title>
<path fill="none" stroke="grey" stroke-width="2" d="M179.543,-290.326C197.354,-280.661 220.996,-267.831 241.03,-256.96"/>
<polygon fill="grey" stroke="grey" stroke-width="2" points="242.827,-259.968 249.947,-252.122 239.488,-253.815 242.827,-259.968"/>
</g>
<!-- 10&#45;&gt;6 -->
<g id="edge10" class="edge"><title>10&#45;&gt;6</title>
<path fill="none" stroke="grey" stroke-width="2" d="M333.444,-287.697C325.005,-279.135 314.675,-268.656 305.457,-259.304"/>
<polygon fill="grey" stroke="grey" stroke-width="2" points="307.873,-256.769 298.36,-252.104 302.887,-261.683 307.873,-256.769"/>
</g>
<!-- 11 -->
<g id="node12" class="node"><title>11</title>
<path fill="none" stroke="#56d8a9" stroke-width="2" d="M228,-468C228,-468 175,-468 175,-468 169,-468 163,-462 163,-456 163,-456 163,-444 163,-444 163,-438 169,-432 175,-432 175,-432 228,-432 228,-432 234,-432 240,-438 240,-444 240,-444 240,-456 240,-456 240,-462 234,-468 228,-468"/>
<text text-anchor="middle" x="201.5" y="-447.5" font-family="sans" font-size="10.00">proteins</text>
</g>
<!-- 11&#45;&gt;7 -->
<g id="edge11" class="edge"><title>11&#45;&gt;7</title>
<path fill="none" stroke="grey" stroke-width="2" d="M188.399,-431.697C182.109,-423.389 174.453,-413.277 167.535,-404.141"/>
<polygon fill="grey" stroke="grey" stroke-width="2" points="170.277,-401.964 161.45,-396.104 164.696,-406.19 170.277,-401.964"/>
</g>
<!-- 11&#45;&gt;8 -->
<g id="edge12" class="edge"><title>11&#45;&gt;8</title>
<path fill="none" stroke="grey" stroke-width="2" d="M214.601,-431.697C220.891,-423.389 228.547,-413.277 235.465,-404.141"/>
<polygon fill="grey" stroke="grey" stroke-width="2" points="238.304,-406.19 241.55,-396.104 232.723,-401.964 238.304,-406.19"/>
</g>
</g>
</svg>
